<svg xmlns="http://www.w3.org/2000/svg" xmlns:xlink="http://www.w3.org/1999/xlink" viewBox="0 0 620.26 272.23"><defs><style>.a{fill:none;}.b{isolation:isolate;}.c{clip-path:url(#a);}.d{fill:#231f20;}.e{clip-path:url(#b);}</style><clipPath id="a" transform="translate(-3.72 -17.37)"><path class="a" d="M.55,171.41c-9.81-47,113.58-113.14,279.13-148.94C448-13.91,596.06-5.19,610.49,42l19.71,94.6c-14.43-47.14-162.53-55.86-330.8-19.48C133.85,152.87,10.46,219,20.26,266,14.35,237.63,6.46,199.79.55,171.41Z"/></clipPath><clipPath id="b" transform="translate(-3.72 -17.37)"><path class="a" d="M20.26,266,.55,171.41a23.51,23.51,0,0,0,.59,2.3c14.43,47.14,162.53,55.86,330.8,19.48C497.49,157.39,620.88,91.27,611.08,44.25l19.71,94.6c9.8,47-113.59,113.14-279.14,148.94-168.26,36.38-316.37,27.66-330.8-19.48C20.62,267.55,20.42,266.78,20.26,266Z"/></clipPath></defs><title>RGC_3D</title><g class="b"><g class="b"><g class="c"><path class="d" d="M577.37,56l-3.65-17.52q-4.89-1.47-10.24-2.76c-9-2-7.61,7.13-4.62,11.66a13.53,13.53,0,0,0,8.27,5.86c3.57.86,7,1.77,10.24,2.76m-16.5-29.9a166.56,166.56,0,0,1,18.62,5.48l11.46,55c-2.47-.9-5.06-1.76-7.75-2.58l-4-19.15q-5.12-1.55-10.74-2.88c-.84,5.54-1.5,9.91-2.8,17.67q-5.2-1.06-10.79-2c1.54-7.21,2.45-11.52,4.08-19.85-15.15-10.08-16.2-29.58-4.92-31.95a16.2,16.2,0,0,1,6.83.26" transform="translate(-3.72 -17.37)"/><path class="d" d="M520.49,43.63c0-.07-5-8.5-6-10.71,0,1-.3,2.7-1,7.49l-.53,2.68-2.1,11.27q8.45.45,16.39,1.16c-2.33-4.15-3.87-6.89-6.72-11.89h0m-15.22-25q6.39.36,12.5.88C528.25,37,537.88,53.5,550.87,77q-6.09-.89-12.56-1.59c-3-5.38-3.68-6.65-5.79-10.44Q521.3,63.83,509,63.28c-1.25,6.28-1.25,6.28-2,9.9q-7.43-.27-15.17-.35c4.41-16.92,8.38-32.61,13.4-54.16" transform="translate(-3.72 -17.37)"/><path class="d" d="M442.85,17.41C482.37,16,494.71,51,481,65.5,465.24,82,412.44,77.57,411.45,47.88a15.21,15.21,0,0,1,.07-2c13.22-1.21,26.06-2.09,38.45-2.64l1.77,8.49q-11.57.51-23.64,1.4c5.2,15.44,35.84,15.34,42.27,3.19,7.35-13.88-9.07-35.2-32.93-27.85-4.2,1.3-9.45,4.09-10.58,10-4.48-.82-10.44-1.95-14.92-2.73,2.16-10.11,14.87-17.68,30.91-18.41" transform="translate(-3.72 -17.37)"/><path class="d" d="M376.32,49.34c-.05-.05-6.21-7.58-7.36-9.74-.14,1.07-.64,3.07-2,8.16l-.88,3-3.6,12.39q11.17-1.63,22.09-3c-1.66-2.17-4.76-6.22-8.28-10.78h0m-18.74-22.4q8.51-1.22,16.86-2.28c13.1,15.74,25.24,30.54,42,51.6q-8.87.83-18,1.86c-2.05-2.69-4.59-6-7.23-9.47q-15.56,1.84-31.65,4.28l-3.26,10.88c-6.42,1-12.91,2.09-19.43,3.23,6.8-19.56,12.93-37.27,20.7-60.1" transform="translate(-3.72 -17.37)"/><path class="d" d="M257.67,46.21c30.73-7,35.45-8,61.27-12.81l2,9.48q-17.55,3.19-35.5,7.07l-5,1.09c16.25,9,27.63,15.4,48.5,27.84l1.93,9.24q-17.79,3.24-36,7.16-12.42,2.68-24.52,5.6l-2-9.55q12.09-2.91,24.52-5.6,7.75-1.67,15.45-3.22c-11.51-6.53-13.58-7.71-48.72-27l-1.93-9.26" transform="translate(-3.72 -17.37)"/><path class="d" d="M192.86,64.1c28.11-8.33,32.43-9.62,57.23-15.87l2,9.47Q232.4,62.61,213.78,68c11.58,6.44,21,11.67,46.29,25.65l1.93,9.24c-19.65,4.89-38.57,10.19-56.58,15.8l-2-9.54q17.82-5.57,36.76-10.67c-20.52-11.31-30.7-16.94-45.4-25.14l-1.93-9.26" transform="translate(-3.72 -17.37)"/><path class="d" d="M168.55,72.09q6.81-2.34,13.83-4.64l11.45,55q-7,2.3-13.83,4.64l-11.45-55" transform="translate(-3.72 -17.37)"/><path class="d" d="M100.4,98.11c30-13.64,45.76,10.82,37.47,32.23S91,172.26,81.18,149a32.49,32.49,0,0,1-2.29-11.35Q92,130.48,107.21,123.4l1.77,8.49q-9.44,4.38-18.11,8.85c4.52,14.28,26.44,5.1,33-7.57,6.69-13-.41-32.1-17.59-26.74-7.43,2.32-16.37,8.73-17.1,19.15-3.19.4-7.46.91-10.65,1.33.77-11.64,9.37-23,21.91-28.8" transform="translate(-3.72 -17.37)"/><path class="d" d="M57.72,149.76c-.61-.92-4.15-6.76-4.88-8.5-.31,2.92-.2,5.86-.3,8.8l-.17,3.26c-.29,6.55-.36,7.92-.59,13.61q5.47-3.85,11.59-7.72c-3.24-5.39-3.3-5.49-5.65-9.45h0m-12.15-19.5q4.23-3,8.83-5.89c8.62,13.22,17,25.76,29.87,44-3.88,2.15-7.63,4.31-11.22,6.47-2.84-4.56-3.28-5.26-5.11-8.23q-9,5.52-16.59,11.05c-.22,6.31-.27,7.62-.4,11.9q-4.41,3.3-8.32,6.58c.5-19.88,1.2-38.69,2.94-65.91" transform="translate(-3.72 -17.37)"/><path class="d" d="M22.3,149.31q2.73-2.72,5.82-5.46l11.46,55A101.61,101.61,0,0,0,23.3,216.59l-2-9.55a90.29,90.29,0,0,1,10.46-12.32L22.3,149.31" transform="translate(-3.72 -17.37)"/><path class="d" d="M7.13,169.78A50.7,50.7,0,0,1,10,164.55L21.4,219.5c-3.54,5.78-5.62,11.43-6.11,16.88l-2-9.55a35.12,35.12,0,0,1,3.29-11.64L7.13,169.78" transform="translate(-3.72 -17.37)"/><path class="d" d="M4.18,188.83a26.34,26.34,0,0,1-.46-4.69l11.46,55a26.15,26.15,0,0,0,.45,4.69L4.18,188.83" transform="translate(-3.72 -17.37)"/></g></g><g class="b"><g class="e"><path class="d" d="M28.47,239l-3.65-17.52a80.59,80.59,0,0,0,7.25,3.89c8.3,4.12,10.07,16.71,6.59,17.95a4.15,4.15,0,0,1-2.94-.43A80.59,80.59,0,0,1,28.47,239m2.09-22.88a71.31,71.31,0,0,1-12.89-7.62l11.45,55q2.4,1.82,5.18,3.51l-4-19.16a83.15,83.15,0,0,0,7.61,4.06c2.57,6.2,5,12.05,9,21.35q3.9,1.59,8.23,3c-4-8.53-6.45-13.65-11-23.7,9.34-3.69,2-29-13.6-36.41" transform="translate(-3.72 -17.37)"/><path class="d" d="M71.18,251.3c.08-.5,1-7.84,1-9.82.42,1,1.38,3.08,3.8,8.07l1.49,2.91c3,5.84,3.56,7,6.18,12.16q-7.1-1.12-13.59-2.52c.57-5.53.64-6.24,1.13-10.8h0m3.39-22.74q-5.35-.88-10.37-1.92c-2.18,15.72-4,30.34-5.92,50.57q4.77,1.47,10,2.73c.55-5.95.55-5.95.88-9.36,6.07,1.39,12.57,2.59,19.46,3.61,3.53,6.71,3.53,6.71,5.56,10.55q6.28.86,13,1.52c-10.32-17.57-19.81-34.11-32.58-57.7" transform="translate(-3.72 -17.37)"/><path class="d" d="M128.18,232.1c-36.61-.64-29.45,32-16.72,45.37,18.73,19.69,57,14.29,57.73-8.14a26,26,0,0,0-2.45-11.3c-12.07.32-23.66.31-34.68,0l1.76,8.48q10.31.31,21.23.24c1.35,14.29-21.19,17.07-32.79,7.12-10.42-8.94-14.21-30.57,4.65-31.87,7.84-.54,18.69,1.83,23.49,10.26,3.6-1.21,8.41-2.8,12-4-6.4-10.68-21.8-15.78-34.22-16.11" transform="translate(-3.72 -17.37)"/><path class="d" d="M199,256c0-.07,2.48-8.46,2.64-10.77.54,1,1.78,2.82,4.93,7.41l1.94,2.64c4.63,6.41,4.63,6.41,8,11.06q-10.47.92-20.59,1.55c.86-3.36,1.75-6.84,3.07-11.89h0m7.69-25.25q-7.95.68-15.71,1.18c-5.39,17.7-10.29,34-16.64,56.29q8.1-.22,16.47-.66,1.32-5.16,2.66-10.31,14.37-.83,29.48-2.22c4.35,5.88,4.52,6.11,7.1,9.58q9.07-.88,18.37-2c-13-15.83-25.12-30.71-41.73-51.87" transform="translate(-3.72 -17.37)"/><path class="d" d="M302.43,217.7c-30.77,5.38-34.73,6.07-59.29,9.34l2,9.48q19-2.39,38.79-5.62c-21.81,28.68-21.81,28.68-31.72,41.76l1.92,9.24c19-2.36,38.55-5.36,58.55-9l-2-9.55q-19.79,3.63-39,6.39Q288,248.34,304.36,227l-1.93-9.26" transform="translate(-3.72 -17.37)"/><path class="d" d="M371.22,202.73c-30.4,7.35-35.08,8.48-61,13.66l2,9.48q12.65-2.43,25.48-5.2,7.6-1.65,15.07-3.37c-7.09,9.67-10.64,14.52-33.53,44.75l1.93,9.24q12.89-2.46,26-5.29,17.52-3.79,34.38-8l-2-9.55q-16.85,4.22-34.38,8l-5.33,1.14c11.32-15,19.22-25.53,33.36-45.6l-1.93-9.26" transform="translate(-3.72 -17.37)"/><path class="d" d="M397.88,195.65q-7.51,2.11-15.19,4.13l11.45,55q7.68-2,15.2-4.13l-11.46-55" transform="translate(-3.72 -17.37)"/><path class="d" d="M474.27,169.37c-41.34,16.17-37.89,50-18.75,58.52,23.48,10.42,68.72-13.24,56.61-44.16a12.57,12.57,0,0,0-.65-1.44c-10.54,4.65-21.71,9.21-33.43,13.64l1.77,8.49q10.94-4.14,21.23-8.42c1.61,17.24-27.06,28.86-38.17,19.32-13.08-11.24-2.46-35.87,21.43-38,8.52-.78,11.28,3.47,12.18,4.87,3.28-2.65,7.69-6.15,10.94-8.84-6.41-9.79-21.33-8.45-33.16-3.93" transform="translate(-3.72 -17.37)"/><path class="d" d="M537.28,169.61c.2-1.21,1.33-9.93,1.32-12.21.45.9,1.37,2.36,3.95,6.44l1.53,2.25,6.25,9.48q-7.07,3.81-14.71,7.6c1-7.89,1-7.89,1.66-13.56h0m4-29q-5.43,2.91-11.21,5.8C527,166.23,523.91,185,518.88,212q7-3.12,13.68-6.28c.86-6.26,1-7.56,1.61-11.84q11.13-5.4,21.08-10.89c3.1,4.76,3.43,5.25,5.36,8.24,3.87-2.18,7.59-4.38,11.16-6.57-8.82-13.21-17.38-25.76-30.52-44" transform="translate(-3.72 -17.37)"/><path class="d" d="M572.86,121.55q-4,2.76-8.32,5.53L576,182a217.91,217.91,0,0,0,24.76-18.12l-2-9.55A199,199,0,0,1,582.32,167l-9.46-45.41" transform="translate(-3.72 -17.37)"/><path class="d" d="M598.3,100.48q-2.61,2.72-5.6,5.46l11.45,54.95a94.72,94.72,0,0,0,15.55-17.73l-2-9.55a84.37,84.37,0,0,1-9.94,12.28l-9.47-45.41" transform="translate(-3.72 -17.37)"/><path class="d" d="M612.53,80.25a47.49,47.49,0,0,1-2.52,5l11.46,55a50.38,50.38,0,0,0,2.51-5l-11.45-55" transform="translate(-3.72 -17.37)"/></g></g></g></svg>