<svg xmlns="http://www.w3.org/2000/svg" viewBox="0 0 222.2 125.32"><defs><style>.a{fill:#231f20;}</style></defs><title>RGC_logo</title><path class="a" d="M27.05,31.63l6.09,15.11H24.52l-5.19-13.4h-8v13.4H3.45V7.26H19.83A14.63,14.63,0,0,1,27,8.93a11.91,11.91,0,0,1,4.67,4.64,13.9,13.9,0,0,1,1.64,6.77A13.61,13.61,0,0,1,31.67,27,11.35,11.35,0,0,1,27.05,31.63Zm-7.72-5.25a5.64,5.64,0,0,0,4.4-1.71,6,6,0,0,0,1.53-4.22,5.53,5.53,0,0,0-1.53-4.09,5.92,5.92,0,0,0-4.4-1.53h-8V26.38Z" transform="translate(-3.45 -6.39)"/><path class="a" d="M48.49,40l-2.11,6.75H37L51,7.26h8.25l14,39.48H63.75L61.64,40ZM57.4,26.22c-.45-1.45-.77-2.48-1-3.08a44.78,44.78,0,0,1-1.29-4.59c-.08.47-.45,1.79-1.13,3.93l-1.22,3.74-2,6.59h8.68Z" transform="translate(-3.45 -6.39)"/><path class="a" d="M110.2,38.85a16.15,16.15,0,0,1-6.49,6.41,20.28,20.28,0,0,1-9.83,2.29A20,20,0,0,1,83.6,45a17,17,0,0,1-6.78-7.15,23.11,23.11,0,0,1-2.37-10.7A23.25,23.25,0,0,1,76.9,16.23,17.65,17.65,0,0,1,83.78,9,20,20,0,0,1,94,6.39a19.51,19.51,0,0,1,7.56,1.45,16.77,16.77,0,0,1,5.94,4.09,14.2,14.2,0,0,1,3.34,6L103.32,21a8.31,8.31,0,0,0-3.3-5,10.65,10.65,0,0,0-6.3-1.79,9.67,9.67,0,0,0-7.91,3.51A14.06,14.06,0,0,0,82.91,27c0,3.85,1,6.94,2.93,9.23a10,10,0,0,0,8.09,3.48,10.85,10.85,0,0,0,7-2.24,8.31,8.31,0,0,0,3.16-6H93V24.75h19.06a23,23,0,0,1,.43,4.66A18.94,18.94,0,0,1,110.2,38.85Z" transform="translate(-3.45 -6.39)"/><path class="a" d="M125.28,40l-2.11,6.75h-9.41l14-39.48h8.26l14,39.48h-9.52L138.44,40Zm8.91-13.77c-.44-1.45-.76-2.48-1-3.08a39.82,39.82,0,0,1-1.29-4.59c-.08.47-.45,1.79-1.14,3.93l-1.21,3.74-2,6.59h8.67Z" transform="translate(-3.45 -6.39)"/><path class="a" d="M170.74,14.94H154V7.37l26.68-.11v7.33l-17,24.58h16.53v7.57H153.84V39.38Z" transform="translate(-3.45 -6.39)"/><path class="a" d="M201.92,14.94H185.17V7.37l26.69-.11v7.33l-17,24.58h16.53v7.57H185V39.38Z" transform="translate(-3.45 -6.39)"/><path class="a" d="M218,7.26h7.62V46.74H218Z" transform="translate(-3.45 -6.39)"/><path class="a" d="M76.28,90.85a16.15,16.15,0,0,1-6.49,6.41A20.28,20.28,0,0,1,60,99.55,20,20,0,0,1,49.68,97a17,17,0,0,1-6.78-7.15,23.11,23.11,0,0,1-2.37-10.7A23.25,23.25,0,0,1,43,68.23,17.65,17.65,0,0,1,49.86,61a20,20,0,0,1,10.21-2.56,19.51,19.51,0,0,1,7.56,1.45,16.77,16.77,0,0,1,5.94,4.09,14.2,14.2,0,0,1,3.34,6L69.4,73a8.31,8.31,0,0,0-3.3-5,10.65,10.65,0,0,0-6.3-1.79,9.67,9.67,0,0,0-7.91,3.51A14.06,14.06,0,0,0,49,79c0,3.85,1,6.94,2.93,9.23A10,10,0,0,0,60,91.72a10.85,10.85,0,0,0,7-2.24,8.31,8.31,0,0,0,3.16-6H59.09V76.75H78.15a23,23,0,0,1,.43,4.66A18.94,18.94,0,0,1,76.28,90.85Z" transform="translate(-3.45 -6.39)"/><path class="a" d="M91.36,92l-2.11,6.75H79.84l14-39.48h8.26l14,39.48h-9.52L104.52,92Zm8.91-13.77c-.44-1.45-.76-2.48-1-3.08A39.82,39.82,0,0,1,98,70.55c-.08.47-.45,1.79-1.14,3.93l-1.21,3.74-2,6.59h8.67Z" transform="translate(-3.45 -6.39)"/><path class="a" d="M145,98.74H120.64V59.26h7.89V91.17H145Z" transform="translate(-3.45 -6.39)"/><path class="a" d="M174.28,98.74H150V59.26h7.88V91.17h16.43Z" transform="translate(-3.45 -6.39)"/><path class="a" d="M179.3,59.26h7.62V98.74H179.3Z" transform="translate(-3.45 -6.39)"/><path class="a" d="M63.23,127.36a11.26,11.26,0,0,1,0-9.56,7.89,7.89,0,0,1,3-3.22,8.4,8.4,0,0,1,4.37-1.13,8.9,8.9,0,0,1,3.44.66A7.3,7.3,0,0,1,76.73,116a6.75,6.75,0,0,1,1.5,2.88l-3.17,1.17a4.26,4.26,0,0,0-1.58-2.5,4.63,4.63,0,0,0-2.88-.92,4.72,4.72,0,0,0-2.59.72,4.86,4.86,0,0,0-1.76,2.08,7.42,7.42,0,0,0-.62,3.12,7.24,7.24,0,0,0,.62,3.08A4.78,4.78,0,0,0,68,127.74a4.5,4.5,0,0,0,2.59.75,4.59,4.59,0,0,0,2.88-.94,4.24,4.24,0,0,0,1.58-2.49l3.17,1.16a6.57,6.57,0,0,1-1.48,2.87A7.26,7.26,0,0,1,74.07,131a8.6,8.6,0,0,1-3.49.69,8.4,8.4,0,0,1-4.39-1.14A7.79,7.79,0,0,1,63.23,127.36Z" transform="translate(-3.45 -6.39)"/><path class="a" d="M86.73,121l4.15-7.22h3.65l-6.27,10.58v7H85.17v-7L79,113.81h3.68Z" transform="translate(-3.45 -6.39)"/><path class="a" d="M95.92,127.36a11.36,11.36,0,0,1,0-9.56,7.89,7.89,0,0,1,3-3.22,8.4,8.4,0,0,1,4.37-1.13,9,9,0,0,1,3.45.66,7.35,7.35,0,0,1,2.68,1.93,6.75,6.75,0,0,1,1.5,2.88l-3.16,1.17a4.32,4.32,0,0,0-1.59-2.5,4.63,4.63,0,0,0-2.88-.92,4.72,4.72,0,0,0-2.59.72,4.86,4.86,0,0,0-1.76,2.08,7.42,7.42,0,0,0-.62,3.12,7.24,7.24,0,0,0,.62,3.08,4.78,4.78,0,0,0,1.76,2.07,4.5,4.5,0,0,0,2.59.75,4.59,4.59,0,0,0,2.88-.94,4.3,4.3,0,0,0,1.59-2.49l3.16,1.16a6.57,6.57,0,0,1-1.48,2.87,7.18,7.18,0,0,1-2.68,1.93,8.6,8.6,0,0,1-3.49.69,8.36,8.36,0,0,1-4.38-1.14A7.75,7.75,0,0,1,95.92,127.36Z" transform="translate(-3.45 -6.39)"/><path class="a" d="M124.37,131.35H113.92V113.81h3.18V128.3h7.27Z" transform="translate(-3.45 -6.39)"/><path class="a" d="M126.93,113.81H130v17.54h-3.07Z" transform="translate(-3.45 -6.39)"/><path class="a" d="M137.13,113.81,144.45,126V113.81h3.17v17.54h-3.15l-7.36-12.12v12.12H134V113.81Z" transform="translate(-3.45 -6.39)"/><path class="a" d="M166.57,127.84a7,7,0,0,1-2.84,2.86,9.71,9.71,0,0,1-8.86-.12,7.58,7.58,0,0,1-3-3.19,10.22,10.22,0,0,1-1.06-4.77,10.54,10.54,0,0,1,1.08-4.83,7.77,7.77,0,0,1,3-3.23,8.75,8.75,0,0,1,4.5-1.14,8.53,8.53,0,0,1,3.36.65,7.32,7.32,0,0,1,2.62,1.81,6.3,6.3,0,0,1,1.48,2.67l-3,1.24a4,4,0,0,0-1.57-2.35,5,5,0,0,0-3-.88,4.91,4.91,0,0,0-2.72.75,4.83,4.83,0,0,0-1.78,2.14,7.55,7.55,0,0,0-.61,3.14,6.5,6.5,0,0,0,1.4,4.36,4.72,4.72,0,0,0,3.81,1.64,5,5,0,0,0,3.36-1.14,4.16,4.16,0,0,0,1.46-3H159v-2.7h8.38a9.6,9.6,0,0,1,.16,1.88A8.73,8.73,0,0,1,166.57,127.84Z" transform="translate(-3.45 -6.39)"/></svg>