<svg xmlns="http://www.w3.org/2000/svg" viewBox="0 0 226.37 295.6"><defs><style>.a{fill:#231f20;}</style></defs><title>RGC_rooster</title><path class="a" d="M201.05,51.52A51.52,51.52,0,0,0,149.53,0H0A103,103,0,0,0,100.77,103v0h48.76A51.52,51.52,0,0,0,201.05,51.52Z"/><circle class="a" cx="147.98" cy="138.91" r="17.46"/><path class="a" d="M222.77,147.75l-21.56-12L226.37,103H183.8v71l-74.75,50.06c-.76.47-1.5,1-2.22,1.48l-1,.68-.23.23c-9.52,7.25-15.51,17.76-15.51,29.45,0,13.48,8,25.39,20.15,32.54a41.58,41.58,0,0,0,24.83,7.07l.19,0c.56,0,1.12,0,1.69,0,25.88,0,46.86-17.74,46.86-39.62h0V174.33Z"/></svg>