<svg xmlns="http://www.w3.org/2000/svg" viewBox="0 0 276.99 277.43"><defs><style>.a{fill:#231f20;}</style></defs><title>RGC_circle</title><path class="a" d="M31,116.44l14.39-3-1.22,6.9L31.3,122.78l-1.38,7.85,12,2.13L40.88,139l-34.57-6.1,2.5-14.15a13.11,13.11,0,0,1,2.52-5.94A10.5,10.5,0,0,1,16,109.47a12.11,12.11,0,0,1,6.11-.37,11.89,11.89,0,0,1,5.63,2.49A10,10,0,0,1,31,116.44Zm-5.3,5.71a5.64,5.64,0,0,0-.84-4.53,5.73,5.73,0,0,0-3.78-2.19,5.44,5.44,0,0,0-4.17.81,5.9,5.9,0,0,0-2.22,4l-1.32,7.5,11,2Z" transform="translate(-6.31 -6.22)"/><path class="a" d="M46.27,96l4.52,5-3.71,6.49L22.89,79.11l3.37-5.88L63,79.69l-3.77,6.59-6.62-1.36ZM39,82.12l-1.82-.36c-2.75-.63-4.4-1-5-1.19A21.18,21.18,0,0,1,34,82.3c.85.92,1.43,1.55,1.74,1.91.86,1,1.31,1.49,1.29,1.47l5.2,5.73,4.41-7.7Z" transform="translate(-6.31 -6.22)"/><path class="a" d="M85,50.89a14.16,14.16,0,0,1-.67,8A17.61,17.61,0,0,1,79,66.06a17.57,17.57,0,0,1-8.4,4.1,15.13,15.13,0,0,1-8.69-1,20.55,20.55,0,0,1-7.76-5.94,20.88,20.88,0,0,1-4.57-8.78,15.55,15.55,0,0,1,.48-8.85A18.57,18.57,0,0,1,61.48,34.7a14.6,14.6,0,0,1,6.35-.6,12.55,12.55,0,0,1,5.7,2.18l-3,5.78a8,8,0,0,0-5.42-1.56A9.88,9.88,0,0,0,59.4,43a9.69,9.69,0,0,0-3.19,4.65,9.54,9.54,0,0,0,0,5.55,15.2,15.2,0,0,0,3.11,5.59,13.06,13.06,0,0,0,7.75,4.88A9.46,9.46,0,0,0,75,61.24a10,10,0,0,0,3.68-6.07A8.34,8.34,0,0,0,77,48.64l-8,6.72-3.48-4.14L78.4,40.43a18.52,18.52,0,0,1,2.68,2.67A17.44,17.44,0,0,1,85,50.89Z" transform="translate(-6.31 -6.22)"/><path class="a" d="M101.37,43.8l.2,6.76-7,2.54-.09-37.28,6.37-2.3L124.64,42.2l-7.14,2.59-4.17-5.32Zm3.42-15.25-1.15-1.45c-1.69-2.26-2.7-3.61-3-4.12a22.8,22.8,0,0,1,.18,2.43q.09,1.88.09,2.58c0,1.31,0,2,0,2l.25,7.73,8.35-3Z" transform="translate(-6.31 -6.22)"/><path class="a" d="M145.87,12.53l-15.45.31-.12-6,23.41-.57.12,5.91-15.26,23.4,15.26-.3.12,6.09-23.13.47-.12-5.91Z" transform="translate(-6.31 -6.22)"/><path class="a" d="M184,18.45l-14.88-4.14,1.62-5.83,22.58,6.19-1.58,5.69-21.35,18,14.71,4.09-1.64,5.87-22.29-6.2,1.59-5.69Z" transform="translate(-6.31 -6.22)"/><path class="a" d="M208.78,22.1l5.38,3L197.21,55.79l-5.38-3Z" transform="translate(-6.31 -6.22)"/><path class="a" d="M242.51,91.65a14.08,14.08,0,0,1-8-1.22A19.31,19.31,0,0,1,224.26,76a15.14,15.14,0,0,1,1.6-8.61A20.63,20.63,0,0,1,232.32,60a21,21,0,0,1,9.07-4,15.58,15.58,0,0,1,8.8,1.08,17.44,17.44,0,0,1,7.15,5.93,17.15,17.15,0,0,1,2.93,6.19,14.82,14.82,0,0,1,.17,6.38,12.44,12.44,0,0,1-2.57,5.54l-5.56-3.43a8,8,0,0,0,1.93-5.3,9.9,9.9,0,0,0-2.08-5.83,9.4,9.4,0,0,0-10-3.86,15.19,15.19,0,0,0-5.79,2.73,13,13,0,0,0-5.39,7.4A9.47,9.47,0,0,0,232.86,81a10,10,0,0,0,5.81,4.08,8.31,8.31,0,0,0,6.63-1.22l-6.16-8.42,4.37-3.19,9.89,13.52a18,18,0,0,1-2.85,2.5A17.45,17.45,0,0,1,242.51,91.65Z" transform="translate(-6.31 -6.22)"/><path class="a" d="M248.44,108.48l-6.75-.27L239.64,101l37.19,2.51,1.86,6.51-30.28,21.77-2.08-7.3,5.6-3.79Zm15,4.48,1.53-1c2.37-1.53,3.79-2.45,4.32-2.72a22.07,22.07,0,0,1-2.43,0c-1.25,0-2.11-.06-2.59-.09l-1.95-.1-7.73-.28,2.43,8.54Z" transform="translate(-6.31 -6.22)"/><path class="a" d="M247.54,159.67l.7-20.87L283.31,140l-.22,6.35-29-1-.5,14.52Z" transform="translate(-6.31 -6.22)"/><path class="a" d="M239.64,187,246,167.15l33.41,10.69-1.93,6-27.62-8.83-4.42,13.84Z" transform="translate(-6.31 -6.22)"/><path class="a" d="M265.87,211.68l-3.09,5.3-30.31-17.65,3.09-5.31Z" transform="translate(-6.31 -6.22)"/><path class="a" d="M220.2,227.69a20.87,20.87,0,0,1,7.23,6.58,20.59,20.59,0,0,1,3.77,9A15.72,15.72,0,0,1,230,252a16.71,16.71,0,0,1-5.83,6.9,17.61,17.61,0,0,1-6.4,2.88,14.7,14.7,0,0,1-6.6,0,13.84,13.84,0,0,1-5.78-3l3.82-5.57a8.57,8.57,0,0,0,5.47,2.25,9.26,9.26,0,0,0,5.77-1.81,9.4,9.4,0,0,0,3.4-4.17,9.71,9.71,0,0,0,.48-5.42,14.9,14.9,0,0,0-2.58-5.81,14.5,14.5,0,0,0-4.57-4.32,9.56,9.56,0,0,0-5.27-1.36,9.08,9.08,0,0,0-5.1,1.76,9.3,9.3,0,0,0-3.63,4.86,8.6,8.6,0,0,0,.3,5.9L197,246.85a13.08,13.08,0,0,1-.9-6.39,14.81,14.81,0,0,1,2.15-6.26,17.42,17.42,0,0,1,4.91-5.16,16.71,16.71,0,0,1,8.49-3.17A15.38,15.38,0,0,1,220.2,227.69Z" transform="translate(-6.31 -6.22)"/><path class="a" d="M178.53,264l-4.05,16.15-7,2,6.31-23.78L170,245l5.95-1.69,3.79,13.4,17.74,17-7.09,2Z" transform="translate(-6.31 -6.22)"/><path class="a" d="M152.6,256.63a22.55,22.55,0,0,1-1,19.07,15.79,15.79,0,0,1-6.31,6.12,16.79,16.79,0,0,1-8.86,1.8,17.76,17.76,0,0,1-6.81-1.7,14.54,14.54,0,0,1-5.15-4.13,13.47,13.47,0,0,1-2.69-5.91l6.44-2a8.59,8.59,0,0,0,2.9,5.16,9.28,9.28,0,0,0,5.66,2.16A9.46,9.46,0,0,0,142,276a9.57,9.57,0,0,0,3.73-3.95,14.73,14.73,0,0,0,1.57-6.16,14.34,14.34,0,0,0-.91-6.23,9.57,9.57,0,0,0-3.29-4.33,9.08,9.08,0,0,0-5.09-1.77,9.31,9.31,0,0,0-5.86,1.56,8.63,8.63,0,0,0-3.43,4.82l-6.19-2.66a13.18,13.18,0,0,1,3.25-5.57,14.65,14.65,0,0,1,5.57-3.58,17.33,17.33,0,0,1,7-1A16.77,16.77,0,0,1,147,249.9,15.38,15.38,0,0,1,152.6,256.63Z" transform="translate(-6.31 -6.22)"/><path class="a" d="M95.92,236.52l19.39,7.74-13,32.58-5.9-2.36,10.76-26.91-13.49-5.4Z" transform="translate(-6.31 -6.22)"/><path class="a" d="M69.5,261l-5.08-3.46,19.73-29,5.08,3.45Z" transform="translate(-6.31 -6.22)"/><path class="a" d="M44.69,240.63l8.83-26.93L35.14,229.56,31,224.75l26.57-22.91,4.11,4.77-8.73,27,18.35-15.83,4.11,4.78L48.84,245.44Z" transform="translate(-6.31 -6.22)"/><path class="a" d="M35.77,167.58a14.06,14.06,0,0,1,7.29,3.47,19.33,19.33,0,0,1,5.68,16.79,15.18,15.18,0,0,1-4,7.78,20.74,20.74,0,0,1-8.3,5.17A21,21,0,0,1,26.59,202a15.58,15.58,0,0,1-8.12-3.57,18.6,18.6,0,0,1-6.16-14.51A14.85,14.85,0,0,1,14,177.72a12.65,12.65,0,0,1,4.06-4.56L22.38,178A8,8,0,0,0,19,182.56a9.87,9.87,0,0,0,.31,6.18,9.7,9.7,0,0,0,3.23,4.63,9.55,9.55,0,0,0,5.21,1.95,15.42,15.42,0,0,0,6.33-.94,13,13,0,0,0,7.29-5.54,9.44,9.44,0,0,0,.56-8.27A10,10,0,0,0,37.56,175a8.31,8.31,0,0,0-6.7-.75l3.47,9.84-5.11,1.8-5.57-15.81a19.1,19.1,0,0,1,3.45-1.56A17.45,17.45,0,0,1,35.77,167.58Z" transform="translate(-6.31 -6.22)"/></svg>