<svg xmlns="http://www.w3.org/2000/svg" viewBox="0 0 870.08 41.21"><defs><style>.a{fill:#231f20;}</style></defs><title>RGC_charm</title><path class="a" d="M21.33,47.5a19.24,19.24,0,0,1-9.75-2.42A16.45,16.45,0,0,1,5,38.25,21.75,21.75,0,0,1,2.69,27.88a23.69,23.69,0,0,1,2.58-11.2,19.11,19.11,0,0,1,7.12-7.62A19.9,19.9,0,0,1,22.83,6.34a20.39,20.39,0,0,1,7.84,1.48,16.74,16.74,0,0,1,6,4.14,15.38,15.38,0,0,1,3.43,6.12l-7.89,3.05a8.59,8.59,0,0,0-3.34-5,10.37,10.37,0,0,0-6.17-1.87A10.35,10.35,0,0,0,16.74,16a11.56,11.56,0,0,0-4,4.87,16.44,16.44,0,0,0-1.45,7.1c0,3.66.89,6.56,2.68,8.64a9,9,0,0,0,7.2,3.14A11.31,11.31,0,0,0,27,38.19a9.79,9.79,0,0,0,4-4.08l7.75,2.79a15.65,15.65,0,0,1-6.83,7.91A20.75,20.75,0,0,1,21.33,47.5Z" transform="translate(-2.69 -6.34)"/><path class="a" d="M71.5,46.74H63.67l2.21-15.61H52.93L50.72,46.74H42.89L48.45,7.26h7.83L54,23.56H66.91l2.32-16.3h7.83Z" transform="translate(-2.69 -6.34)"/><path class="a" d="M88.82,40l-3,6.75H76.3L95.89,7.26h8.25l8.44,39.48h-9.44L102,40ZM99.6,26.22,99.08,23a36.18,36.18,0,0,1-.71-4.53c-.14.47-.51,1.39-1.09,2.74s-1,2.43-1.39,3.14c-.11.23-.24.5-.37.79s-.32.66-.5,1l-3,6.59h8.68Z" transform="translate(-2.69 -6.34)"/><path class="a" d="M143.08,31.89l4,14.85h-8.75L135,33.34h-8l-1.87,13.4h-7.83l5.56-39.48h15.37a14.29,14.29,0,0,1,6.67,1.51,11.19,11.19,0,0,1,4.51,4.3,12.74,12.74,0,0,1,1.58,6.4,13.53,13.53,0,0,1-2.1,7.54A12.89,12.89,0,0,1,143.08,31.89Zm-7.31-5.56A7.57,7.57,0,0,0,141,24.64a5.58,5.58,0,0,0,1.9-4.43,5.5,5.5,0,0,0-1.4-3.88,5.4,5.4,0,0,0-4.11-1.5h-7.78l-1.58,11.5Z" transform="translate(-2.69 -6.34)"/><path class="a" d="M167.41,7.26l7,29.64,15.5-29.64H198l-5.56,39.48h-7.88l1.71-12.11c.58-4.24,1.11-7.43,1.58-9.54L177,46.74h-7.38l-4.72-21.6c-.08,2-.4,5.14-1,9.49l-1.74,12.11H154l5.56-39.48Z" transform="translate(-2.69 -6.34)"/><path class="a" d="M228.81,7.26l12,26.13,3.69-26.13h7.78l-5.57,39.48h-7.77l-12-26.13-3.72,26.13h-7.83l5.56-39.48Z" transform="translate(-2.69 -6.34)"/><path class="a" d="M283.58,7.26l-1.08,7.57H267.65L266.52,23h13.1l-.95,7.57H265.49l-1.24,8.62h14.84L278,46.74H255.34L260.9,7.26Z" transform="translate(-2.69 -6.34)"/><path class="a" d="M301.86,35.08l13-27.82h9.68L304.76,46.74h-8.3L287.65,7.26h8.81Z" transform="translate(-2.69 -6.34)"/><path class="a" d="M352.15,7.26l-1.08,7.57H336.23L335.09,23H348.2l-.95,7.57H334.07l-1.24,8.62h14.84l-1.08,7.57H323.92l5.56-39.48Z" transform="translate(-2.69 -6.34)"/><path class="a" d="M379.2,31.89l4,14.85h-8.76l-3.32-13.4h-8l-1.87,13.4h-7.83L359,7.26h15.38a14.35,14.35,0,0,1,6.67,1.51,11.32,11.32,0,0,1,4.51,4.3,12.84,12.84,0,0,1,1.58,6.4A13.46,13.46,0,0,1,385,27,12.89,12.89,0,0,1,379.2,31.89Zm-7.3-5.56a7.56,7.56,0,0,0,5.24-1.69,5.58,5.58,0,0,0,1.9-4.43,5.54,5.54,0,0,0-1.39-3.88,5.41,5.41,0,0,0-4.12-1.5h-7.78l-1.58,11.5Z" transform="translate(-2.69 -6.34)"/><path class="a" d="M418.08,7.26l7,29.64,15.5-29.64h8.1l-5.57,39.48h-7.88l1.71-12.11c.58-4.24,1.11-7.43,1.59-9.54L427.62,46.74h-7.38l-4.72-21.6c-.08,2-.4,5.14-1,9.49l-1.74,12.11h-8.15l5.56-39.48Z" transform="translate(-2.69 -6.34)"/><path class="a" d="M460.4,40l-3,6.75h-9.49L467.46,7.26h8.26l8.43,39.48h-9.44L473.58,40Zm10.78-13.77L470.65,23a40.64,40.64,0,0,1-.71-4.53,28.26,28.26,0,0,1-1.08,2.74c-.61,1.37-1.05,2.43-1.4,3.14-.1.23-.23.5-.37.79s-.31.66-.5,1l-2.95,6.59h8.67Z" transform="translate(-2.69 -6.34)"/><path class="a" d="M506.16,7.21a19.08,19.08,0,0,1,9.47,2.22,14.75,14.75,0,0,1,6,6.25,20.66,20.66,0,0,1,2,9.46A22.9,22.9,0,0,1,521,36.48a18.9,18.9,0,0,1-7.7,7.57,23.84,23.84,0,0,1-11.47,2.69h-12.9l5.57-39.53Zm2.61,30.25a11.93,11.93,0,0,0,4.75-4.8,14.8,14.8,0,0,0,1.66-7.15c0-3.43-.84-6.06-2.56-7.94a8.89,8.89,0,0,0-6.93-2.79h-4.43l-3.4,24.39h3.82A14.5,14.5,0,0,0,508.77,37.46Z" transform="translate(-2.69 -6.34)"/><path class="a" d="M555.36,7.26l-1.08,7.57H539.43L538.3,23h13.11l-.95,7.57H537.27L536,39.17h14.85l-1.08,7.57H527.12l5.56-39.48Z" transform="translate(-2.69 -6.34)"/><path class="a" d="M580,40l-3,6.75H567.5L587.09,7.26h8.25l8.44,39.48h-9.44L593.21,40Zm10.79-13.77L590.28,23a36.18,36.18,0,0,1-.71-4.53,28.26,28.26,0,0,1-1.08,2.74c-.61,1.37-1.06,2.43-1.4,3.14-.11.23-.24.5-.37.79s-.32.66-.5,1l-3,6.59h8.67Z" transform="translate(-2.69 -6.34)"/><path class="a" d="M649,31.89l4,14.85h-8.75L641,33.34h-8l-1.87,13.4h-7.83l5.56-39.48h15.37a14.29,14.29,0,0,1,6.67,1.51,11.19,11.19,0,0,1,4.51,4.3,12.74,12.74,0,0,1,1.58,6.4A13.46,13.46,0,0,1,654.86,27,12.81,12.81,0,0,1,649,31.89Zm-7.31-5.56A7.6,7.6,0,0,0,647,24.64a5.58,5.58,0,0,0,1.9-4.43,5.55,5.55,0,0,0-1.4-3.88,5.4,5.4,0,0,0-4.11-1.5h-7.78L634,26.33Z" transform="translate(-2.69 -6.34)"/><path class="a" d="M663,38.33a22,22,0,0,1-2.27-10.18A23.28,23.28,0,0,1,663.38,17,19.44,19.44,0,0,1,681,6.39a18.6,18.6,0,0,1,9.55,2.43,16.55,16.55,0,0,1,6.43,6.8,21.46,21.46,0,0,1,2.3,10.1,23.65,23.65,0,0,1-2.67,11.34,19.43,19.43,0,0,1-7.35,7.73A20,20,0,0,1,679,47.55a18.37,18.37,0,0,1-9.54-2.42A16.31,16.31,0,0,1,663,38.33Zm26.29-5.49A15.69,15.69,0,0,0,690.77,26a14.17,14.17,0,0,0-1.24-6,9.2,9.2,0,0,0-8.7-5.48,10.46,10.46,0,0,0-5.93,1.79,11.89,11.89,0,0,0-4.11,4.85A15.52,15.52,0,0,0,669.28,28,12.24,12.24,0,0,0,672,36.32a9,9,0,0,0,7.17,3.14,10.44,10.44,0,0,0,6-1.77A12.08,12.08,0,0,0,689.3,32.84Z" transform="translate(-2.69 -6.34)"/><path class="a" d="M706.12,38.33a22,22,0,0,1-2.27-10.18A23.28,23.28,0,0,1,706.49,17,19.44,19.44,0,0,1,724.15,6.39a18.6,18.6,0,0,1,9.55,2.43,16.55,16.55,0,0,1,6.43,6.8,21.46,21.46,0,0,1,2.3,10.1,23.65,23.65,0,0,1-2.67,11.34,19.43,19.43,0,0,1-7.35,7.73,20,20,0,0,1-10.34,2.76,18.37,18.37,0,0,1-9.54-2.42A16.31,16.31,0,0,1,706.12,38.33Zm26.29-5.49A15.69,15.69,0,0,0,733.88,26a14.17,14.17,0,0,0-1.24-6,9.2,9.2,0,0,0-8.7-5.48A10.46,10.46,0,0,0,718,16.28a11.89,11.89,0,0,0-4.11,4.85A15.52,15.52,0,0,0,712.39,28a12.24,12.24,0,0,0,2.72,8.33,9,9,0,0,0,7.17,3.14,10.44,10.44,0,0,0,6-1.77A12,12,0,0,0,732.41,32.84Z" transform="translate(-2.69 -6.34)"/><path class="a" d="M766.07,15.2A5.29,5.29,0,0,0,762.38,14a5.62,5.62,0,0,0-3.8,1.24,4,4,0,0,0-1.42,3.19,3.15,3.15,0,0,0,1.08,2.53,8.74,8.74,0,0,0,3,1.56l4.83,1.63a11.8,11.8,0,0,1,6,4.12,10.82,10.82,0,0,1,2,6.4,11.83,11.83,0,0,1-1.9,6.62,12.49,12.49,0,0,1-5.28,4.48,17.22,17.22,0,0,1-7.62,1.61,16.06,16.06,0,0,1-7.33-1.55,10.6,10.6,0,0,1-4.66-4.27,11.2,11.2,0,0,1-1.4-6.17l7.49-1.09a5.17,5.17,0,0,0,1.74,4.07,7.67,7.67,0,0,0,8.73.36,3.87,3.87,0,0,0,1.52-3.24c0-2-1.16-3.32-3.45-4.11l-4.8-1.66q-8.34-2.92-8.38-10.37a12.72,12.72,0,0,1,1.79-6.75A12.17,12.17,0,0,1,755.36,8a15.48,15.48,0,0,1,7.1-1.58,13.55,13.55,0,0,1,8.8,2.84,11,11,0,0,1,4,7.57l-7.57,1.85A5.51,5.51,0,0,0,766.07,15.2Z" transform="translate(-2.69 -6.34)"/><path class="a" d="M798.4,14.83l-4.49,31.91H786l4.48-31.91H780.25l1.09-7.57h28.39l-1.13,7.57Z" transform="translate(-2.69 -6.34)"/><path class="a" d="M837.79,7.26l-1.08,7.57H821.86L820.73,23h13.1l-.94,7.57H819.7l-1.24,8.62h14.85l-1.08,7.57H809.55l5.56-39.48Z" transform="translate(-2.69 -6.34)"/><path class="a" d="M864.84,31.89l4,14.85h-8.75l-3.33-13.4h-8l-1.87,13.4h-7.83l5.56-39.48H860a14.29,14.29,0,0,1,6.67,1.51,11.19,11.19,0,0,1,4.51,4.3,12.74,12.74,0,0,1,1.58,6.4A13.46,13.46,0,0,1,870.66,27,12.81,12.81,0,0,1,864.84,31.89Zm-7.31-5.56a7.6,7.6,0,0,0,5.25-1.69,5.58,5.58,0,0,0,1.9-4.43,5.55,5.55,0,0,0-1.4-3.88,5.4,5.4,0,0,0-4.11-1.5h-7.78l-1.58,11.5Z" transform="translate(-2.69 -6.34)"/></svg>