<svg xmlns="http://www.w3.org/2000/svg" viewBox="0 0 159.77 152.16"><defs><style>.a{fill:#231f20;}</style></defs><title>RGC_initials</title><path class="a" d="M37.17,43.45l8.36,20.76H33.69l-7.14-18.4h-11v18.4H4.75V10H27.24a20.18,20.18,0,0,1,9.82,2.28,16.45,16.45,0,0,1,6.41,6.38A19.16,19.16,0,0,1,45.71,28a18.74,18.74,0,0,1-2.2,9.2A15.63,15.63,0,0,1,37.17,43.45ZM26.55,36.24a7.7,7.7,0,0,0,6.05-2.35,8.3,8.3,0,0,0,2.1-5.8,7.59,7.59,0,0,0-2.1-5.61,8.1,8.1,0,0,0-6.05-2.1h-11V36.24Z" transform="translate(-4.75 -8.79)"/><path class="a" d="M59.7,147.5a31.23,31.23,0,0,1-3.3-14.67A32,32,0,0,1,59.73,118a24.34,24.34,0,0,1,9.28-10,25.71,25.71,0,0,1,13.47-3.52,27.07,27.07,0,0,1,10.76,2.1,23.22,23.22,0,0,1,8.3,5.94,21.08,21.08,0,0,1,4.63,9l-10.83,4a12.29,12.29,0,0,0-4.53-7.28,13.21,13.21,0,0,0-8.4-2.75A13.06,13.06,0,0,0,75,117.66a14.28,14.28,0,0,0-5,6,23.18,23.18,0,0,0,0,18,13.93,13.93,0,0,0,5,6.05,14,14,0,0,0,15.83-.58,12.25,12.25,0,0,0,4.49-7.28l10.83,4a20.48,20.48,0,0,1-4.56,8.91,22.48,22.48,0,0,1-8.3,6,27,27,0,0,1-10.9,2.13,25.6,25.6,0,0,1-13.51-3.55A24.22,24.22,0,0,1,59.7,147.5Z" transform="translate(-4.75 -8.79)"/><path class="a" d="M161.36,53.38a22.2,22.2,0,0,1-8.91,8.8,27.91,27.91,0,0,1-13.51,3.15,27.49,27.49,0,0,1-14.13-3.51A23.41,23.41,0,0,1,115.5,52a31.82,31.82,0,0,1-3.26-14.71,31.94,31.94,0,0,1,3.37-15,24.14,24.14,0,0,1,9.45-10,27.36,27.36,0,0,1,14-3.51,26.76,26.76,0,0,1,10.4,2,23,23,0,0,1,8.15,5.61,19.44,19.44,0,0,1,4.6,8.26L151.9,28.89a11.42,11.42,0,0,0-4.52-6.81,14.73,14.73,0,0,0-8.66-2.46c-4.6,0-8.22,1.59-10.87,4.81s-4,7.43-4,12.68,1.34,9.53,4,12.68,6.37,4.78,11.12,4.78a14.86,14.86,0,0,0,9.6-3.08A11.47,11.47,0,0,0,153,43.27H137.74V34h26.19a31.54,31.54,0,0,1,.58,6.41A26.06,26.06,0,0,1,161.36,53.38Z" transform="translate(-4.75 -8.79)"/></svg>